<svg width="60" height="53" viewBox="0 0 60 53" fill="none" xmlns="http://www.w3.org/2000/svg">
<path d="M36.6891 1H23.5135C23.5694 15.0289 22.1399 22.5903 16.6216 35.4595L24.9324 34.6486C26.9713 31.7843 28.1344 29.9712 30.2027 26.3378C31.6526 23.6612 32.4086 21.9684 33.6486 18.6351C35.6579 11.8498 36.008 7.94952 36.6891 1Z" fill="url(#paint0_linear_2457_159)"/>
<path d="M40.1351 41.0373L35.0676 34.3482C18.6927 33.7857 11.1489 35.4101 0 41.0373C2.21649 45.7755 3.62722 48.3283 6.28378 52.7941C17.115 45.653 24.4248 42.9722 40.1351 41.0373Z" fill="url(#paint1_linear_2457_159)"/>
<path d="M30.4053 25.9324C31.8491 23.3076 32.4765 21.7886 33.4458 19.0405C41.8918 30.1785 47.664 34.0509 59.9999 40.9324L53.3107 52.4865C41.2765 43.7601 36.298 38.6 30.4053 25.9324Z" fill="url(#paint2_linear_2457_159)"/>
<defs>
<linearGradient id="paint0_linear_2457_159" x1="36.6891" y1="1" x2="17.6351" y2="35.4595" gradientUnits="userSpaceOnUse">
<stop stop-color="#6F40CF"/>
<stop offset="1" stop-color="#9683EC"/>
</linearGradient>
<linearGradient id="paint1_linear_2457_159" x1="35.2703" y1="35.159" x2="6.68919" y2="51.5779" gradientUnits="userSpaceOnUse">
<stop stop-color="#4F96F1"/>
<stop offset="0.998" stop-color="#84DDE2"/>
</linearGradient>
<linearGradient id="paint2_linear_2457_159" x1="33.6047" y1="20.0242" x2="52.9332" y2="52.5676" gradientUnits="userSpaceOnUse">
<stop stop-color="#6F40CF"/>
<stop offset="1" stop-color="#4F96F1"/>
</linearGradient>
</defs>
</svg>
