<svg width="38" height="28" viewBox="0 0 38 28" fill="none" xmlns="http://www.w3.org/2000/svg">
<path d="M32.492 3.26111C29.26 0.663774 24.1494 0.223773 23.9334 0.205107C23.592 0.175773 23.268 0.369107 23.128 0.681107C23.1227 0.691774 22.8374 1.51977 22.5614 2.31844C26.3174 2.97577 28.8694 4.43444 29.0054 4.51444C29.6427 4.88511 29.856 5.70244 29.484 6.33844C29.2374 6.76244 28.7907 6.99977 28.332 6.99977C28.104 6.99977 27.8747 6.94244 27.664 6.81977C27.6267 6.79711 23.8827 4.66644 19.0014 4.66644C14.1187 4.66644 10.3734 6.79844 10.336 6.81977C9.70003 7.18911 8.88403 6.97177 8.5147 6.33444C8.14536 5.69977 8.36003 4.88511 8.9947 4.51444C9.1307 4.43444 11.692 2.97044 15.4587 2.31444C15.168 1.50644 14.8747 0.691774 14.8694 0.681107C14.7294 0.367774 14.4054 0.17044 14.064 0.205107C13.848 0.22244 8.73736 0.66244 5.4627 3.29577C3.7507 4.87711 0.332031 14.1224 0.332031 22.1158C0.332031 22.2571 0.368031 22.3944 0.438698 22.5171C2.80003 26.6638 9.23736 27.7491 10.704 27.7958C10.7134 27.7971 10.7214 27.7971 10.7294 27.7971C10.988 27.7971 11.232 27.6731 11.3854 27.4638L12.972 25.3144C9.49203 24.4758 7.65203 23.1571 7.54136 23.0758C6.94936 22.6398 6.82136 21.8051 7.25736 21.2118C7.69203 20.6211 8.52403 20.4904 9.11603 20.9238C9.16536 20.9558 12.5614 23.3331 18.9987 23.3331C25.4614 23.3331 28.848 20.9464 28.8814 20.9224C29.4734 20.4931 30.308 20.6224 30.7414 21.2171C31.1734 21.8091 31.048 22.6384 30.4587 23.0731C30.348 23.1544 28.5174 24.4704 25.0454 25.3091L26.612 27.4624C26.7654 27.6731 27.0094 27.7958 27.268 27.7958C27.2774 27.7958 27.2854 27.7958 27.2934 27.7944C28.7614 27.7478 35.1987 26.6624 37.5587 22.5158C37.6294 22.3931 37.6654 22.2558 37.6654 22.1144C37.6654 14.1224 34.2467 4.87711 32.492 3.26111ZM13.6654 19.3331C12.192 19.3331 10.9987 17.8411 10.9987 15.9998C10.9987 14.1584 12.192 12.6664 13.6654 12.6664C15.1387 12.6664 16.332 14.1584 16.332 15.9998C16.332 17.8411 15.1387 19.3331 13.6654 19.3331ZM24.332 19.3331C22.8587 19.3331 21.6654 17.8411 21.6654 15.9998C21.6654 14.1584 22.8587 12.6664 24.332 12.6664C25.8054 12.6664 26.9987 14.1584 26.9987 15.9998C26.9987 17.8411 25.8054 19.3331 24.332 19.3331Z" fill="#000"/>
</svg>