<svg width="38" height="26" viewBox="0 0 38 26" fill="none" xmlns="http://www.w3.org/2000/svg">
<path d="M37.3337 9.18184C37.4161 6.79626 36.8944 4.42854 35.817 2.29851C35.086 1.42451 34.0716 0.834692 32.9504 0.631842C28.3129 0.211051 23.6563 0.0385822 19.0004 0.115175C14.3614 0.0351058 9.72155 0.202009 5.10037 0.615176C4.18674 0.78137 3.34123 1.20991 2.66704 1.84851C1.16704 3.23184 1.00037 5.59851 0.833704 7.59851C0.59189 11.1944 0.59189 14.8026 0.833704 18.3985C0.881921 19.5242 1.04953 20.6416 1.3337 21.7318C1.53466 22.5736 1.94124 23.3524 2.51704 23.9985C3.19582 24.6709 4.06101 25.1239 5.00037 25.2985C8.59356 25.742 12.2141 25.9258 15.8337 25.8485C21.667 25.9318 26.7837 25.8485 32.8337 25.3818C33.7961 25.2179 34.6857 24.7644 35.3837 24.0818C35.8503 23.615 36.1988 23.0437 36.4004 22.4152C36.9964 20.5862 37.2892 18.672 37.267 16.7485C37.3337 15.8152 37.3337 10.1818 37.3337 9.18184ZM15.2337 17.7485V7.43184L25.1004 12.6152C22.3337 14.1485 18.6837 15.8818 15.2337 17.7485Z" fill="#000"/>
</svg>
