<svg id="Layer_1" data-name="Layer 1" xmlns="http://www.w3.org/2000/svg" viewBox="0 0 404.63 404.63">
  <defs>
    <linearGradient id="grad1" x1="0" x2="0" y1="0" y2="1">
      <stop offset="0%" stop-color="#3f82d5"/>
      <stop offset="100%" stop-color="#4740d6"/>
    </linearGradient>
    <linearGradient id="grad1b" x1="0" x2="0" y1="0" y2="1">
      <stop offset="0%" stop-color="#4361d6"/>
      <stop offset="100%" stop-color="#4740d6"/>
    </linearGradient>
    <linearGradient id="grad2" x1="0" x2="0" y1="0" y2="1">
      <stop offset="0%" stop-color="#5011d5"/>
      <stop offset="100%" stop-color="#b211d6"/>
    </linearGradient>
    <linearGradient id="grad3" x1="0" x2="1" y1="0" y2="0">
      <stop offset="0%" stop-color="#3f82d5"/>
      <stop offset="100%" stop-color="#2ef3d4"/>
    </linearGradient>
    <style>
      .cls-1 {
        fill: #2ef3d4;
        fill: url(#grad1);
      }
      .cls-1b {
        fill: #2ef3d4;
        fill: url(#grad1b);
      }
      .cls-2 {
        fill: #5011d5;
        fill: url(#grad2);
      }
      .cls-3 {
        fill: #3f82d5;
        fill: url(#grad3);
      }
      <!-- .cls-1 {
        fill: #0a0bf9;
      }
      .cls-2 {
        fill: #32f1c6;
      }
      .cls-3 {
        fill: #08d7f9;
      } -->
    </style>
  </defs>
  <path class="cls-1" d="M382.14,259.17l-39.42,68.28C237.34,263.17,182.52,154.2,162.86,16,211.3,121,280.86,210.72,382.14,259.17Z" />
  <path class="cls-2" d="M162.91,16h78.83c-3,123.4-69.93,225.36-179.75,311.47C128.64,233.09,171.59,128,162.91,16Z" />
  <path class="cls-3" d="M61.91,327.36,22.49,259.09C130.85,200,252.63,207,382.12,259,267,248.51,154.51,263.88,61.91,327.36Z" />
  <path class="cls-1b" d="M284.35,191.78a385.63,385.63,0,0,0,97.79,67.39l-39.42,68.28c-50.39-30.74-89.21-71.69-118.16-121.16Z" />
</svg>